<svg xmlns="http://www.w3.org/2000/svg" height="1443.973" width="2564.333"><path d="M2.278 934.085v132l13.332-108z" fill="#26448c"/><path d="M2.278 934.085v132l13.332-108z" fill="none" stroke="#26448c" stroke-width="1.333"/><path d="M2.278 1442.08V934.085l34.666 189.334z" fill="#284991"/><path d="M2.278 1442.08V934.085l34.666 189.334z" fill="none" stroke="#284991" stroke-width="1.333"/><path d="M2.278 934.085v507.995l34.666-318.661z" fill="#284991"/><path d="M2.278 934.085v507.995l34.666-318.661z" fill="none" stroke="#284991" stroke-width="1.333"/><path d="M2.278 1066.085v133.334l34.666-76z" fill="#284994"/><path d="M2.278 1066.085v133.334l34.666-76z" fill="none" stroke="#284994" stroke-width="1.333"/><path d="M2.278 2.08v132.005z" fill="#262966"/><path d="M2.278 2.08h0v132.005z" fill="none" stroke="#262966" stroke-width="1.333"/><path d="M2.278 1332.752v109.328-109.328" fill="#294c94"/><path d="M2.278 1332.752v109.328z" fill="none" stroke="#294c94" stroke-width="1.333"/><path d="M15.61 958.085l-13.332 108 85.332-58.666z" fill="#26458f"/><path d="M15.61 958.085l-13.332 108 85.332-58.666z" fill="none" stroke="#26458f" stroke-width="1.333"/><path d="M2.278 667.419v133.333l97.332-34.667z" fill="#273d83"/><path d="M2.278 667.419v133.333l97.332-34.667z" fill="none" stroke="#273d83" stroke-width="1.333"/><path d="M15.61 958.085l72 49.334 26.667-41.334z" fill="#284791"/><path d="M15.61 958.085l72 49.334 26.667-41.334z" fill="none" stroke="#284791" stroke-width="1.333"/><path d="M2.278 1332.752v109.328l102.666-98.667z" fill="#284a94"/><path d="M2.278 1332.752v109.328l102.666-98.667z" fill="none" stroke="#284a94" stroke-width="1.333"/><path d="M2.278 1442.08l102.666-98.667z" fill="#2a4d97"/><path d="M2.278 1442.08h0l102.666-98.667z" fill="none" stroke="#2a4d97" stroke-width="1.333"/><path d="M2.278 1442.08l34.666-318.661 68 219.994z" fill="#27478f"/><path d="M2.278 1442.08l34.666-318.661 68 219.994z" fill="none" stroke="#27478f" stroke-width="1.333"/><path d="M36.944 1123.419L2.278 1442.08l102.666-98.667z" fill="#27478f"/><path d="M36.944 1123.419L2.278 1442.08l102.666-98.667z" fill="none" stroke="#27478f" stroke-width="1.333"/><path d="M2.278 1066.085l34.666 57.334 50.666-116z" fill="#284791"/><path d="M2.278 1066.085l34.666 57.334 50.666-116z" fill="none" stroke="#284791" stroke-width="1.333"/><path d="M104.944 1343.413L2.278 1442.08h132z" fill="#3158aa"/><path d="M104.944 1343.413L2.278 1442.08h132z" fill="none" stroke="#3158aa" stroke-width="1.333"/><path d="M2.278 934.085l13.332 24 98.667 8z" fill="#26458c"/><path d="M2.278 934.085l13.332 24 98.667 8z" fill="none" stroke="#26458c" stroke-width="1.333"/><path d="M2.278 1199.419v133.333l102.666 10.661z" fill="#27478d"/><path d="M2.278 1199.419v133.333l102.666 10.661z" fill="none" stroke="#27478d" stroke-width="1.333"/><path d="M2.278 2.08v132.005l132-132.005z" fill="#242862"/><path d="M2.278 2.08v132.005l132-132.005z" fill="none" stroke="#242862" stroke-width="1.333"/><path d="M87.61 1007.419l-50.666 116 126.667-6.667z" fill="#2a4a9b"/><path d="M87.61 1007.419l-50.666 116 126.667-6.667z" fill="none" stroke="#2a4a9b" stroke-width="1.333"/><path d="M99.61 766.085l-97.332 168 112 32z" fill="#26438c"/><path d="M99.61 766.085l-97.332 168 112 32z" fill="none" stroke="#26438c" stroke-width="1.333"/><path d="M2.278 800.752v133.333l97.332-168z" fill="#273f86"/><path d="M2.278 800.752v133.333l97.332-168z" fill="none" stroke="#273f86" stroke-width="1.333"/><path d="M99.61 766.085l14.667 200 77.334-57.333z" fill="#284895"/><path d="M99.61 766.085l14.667 200 77.334-57.333z" fill="none" stroke="#284895" stroke-width="1.333"/><path d="M114.277 966.085l41.334-9.333 36-48z" fill="#294899"/><path d="M114.277 966.085l41.334-9.333 36-48z" fill="none" stroke="#294899" stroke-width="1.333"/><path d="M2.278 1199.419l102.666 143.994 101.333-121.328z" fill="#2e52a5"/><path d="M2.278 1199.419l102.666 143.994 101.333-121.328z" fill="none" stroke="#2e52a5" stroke-width="1.333"/><path d="M163.61 1116.752L2.279 1199.419l204 22.666z" fill="#2b4a9f"/><path d="M163.61 1116.752L2.279 1199.419l204 22.666z" fill="none" stroke="#2b4a9f" stroke-width="1.333"/><path d="M155.61 956.752l-68 50.667 76 109.333z" fill="#284996"/><path d="M155.61 956.752l-68 50.667 76 109.333z" fill="none" stroke="#284996" stroke-width="1.333"/><path d="M36.944 1123.419l-34.666 76 161.333-82.667z" fill="#294a9a"/><path d="M36.944 1123.419l-34.666 76 161.333-82.667z" fill="none" stroke="#294a9a" stroke-width="1.333"/><path d="M114.277 966.085L87.61 1007.42l68-50.667z" fill="#284797"/><path d="M114.277 966.085L87.61 1007.42l68-50.667z" fill="none" stroke="#284797" stroke-width="1.333"/><path d="M206.277 1222.085l-101.333 121.328 146.667-31.994z" fill="#3962b7"/><path d="M206.277 1222.085l-101.333 121.328 146.667-31.994z" fill="none" stroke="#3962b7" stroke-width="1.333"/><path d="M104.944 1343.413l29.333 98.667 121.334-110.661z" fill="#426ebf"/><path d="M104.944 1343.413l29.333 98.667 121.334-110.661z" fill="none" stroke="#426ebf" stroke-width="1.333"/><path d="M251.61 1311.419l-146.666 31.994 150.667-11.994z" fill="#436ebf"/><path d="M251.61 1311.419l-146.666 31.994 150.667-11.994z" fill="none" stroke="#436ebf" stroke-width="1.333"/><path d="M2.278 534.085V667.42l273.333-98.667z" fill="#28397c"/><path d="M2.278 534.085V667.42l273.333-98.667z" fill="none" stroke="#28397c" stroke-width="1.333"/><path d="M2.278 667.419l97.332 98.666 176-197.333z" fill="#273c81"/><path d="M2.278 667.419l97.332 98.666 176-197.333z" fill="none" stroke="#273c81" stroke-width="1.333"/><path d="M99.61 766.085l92 142.667 80-146.667z" fill="#264590"/><path d="M99.61 766.085l92 142.667 80-146.667z" fill="none" stroke="#264590" stroke-width="1.333"/><path d="M255.61 1331.419L134.278 1442.08h133.334z" fill="#4775c3"/><path d="M255.61 1331.419L134.278 1442.08h133.334z" fill="none" stroke="#4775c3" stroke-width="1.333"/><path d="M163.61 1116.752l42.667 105.333 46.667-114.666z" fill="#2c4da1"/><path d="M163.61 1116.752l42.667 105.333 46.667-114.666z" fill="none" stroke="#2c4da1" stroke-width="1.333"/><path d="M155.61 956.752l8 160 89.334-9.333z" fill="#2a4b9f"/><path d="M155.61 956.752l8 160 89.334-9.333z" fill="none" stroke="#2a4b9f" stroke-width="1.333"/><path d="M99.61 766.085l172-4 32-136z" fill="#274391"/><path d="M99.61 766.085l172-4 32-136z" fill="none" stroke="#274391" stroke-width="1.333"/><path d="M275.61 568.752l-176 197.333 204-140z" fill="#283f89"/><path d="M275.61 568.752l-176 197.333 204-140z" fill="none" stroke="#283f89" stroke-width="1.333"/><path d="M2.278 400.752v133.333l273.333 34.667z" fill="#242d62"/><path d="M2.278 400.752v133.333l273.333 34.667z" fill="none" stroke="#242d62" stroke-width="1.333"/><path d="M303.61 626.085l-32 136 73.334-112z" fill="#27438f"/><path d="M303.61 626.085l-32 136 73.334-112z" fill="none" stroke="#27438f" stroke-width="1.333"/><path d="M191.61 908.752l-36 48 97.334 150.667z" fill="#2a4b9f"/><path d="M191.61 908.752l-36 48 97.334 150.667z" fill="none" stroke="#2a4b9f" stroke-width="1.333"/><path d="M191.61 908.752l61.334 198.667 128-132z" fill="#2c4da3"/><path d="M191.61 908.752l61.334 198.667 128-132z" fill="none" stroke="#2c4da3" stroke-width="1.333"/><path d="M2.278 2.08h132L275.61 568.752z" fill="#24285f"/><path d="M2.278 2.08h132L275.61 568.752z" fill="none" stroke="#24285f" stroke-width="1.333"/><path d="M134.277 2.08h-132l273.334 566.672z" fill="#24285f"/><path d="M134.277 2.08h-132l273.334 566.672z" fill="none" stroke="#24285f" stroke-width="1.333"/><path d="M255.61 1331.419l12 110.661h133.334z" fill="#4f7bc7"/><path d="M255.61 1331.419l12 110.661h133.334z" fill="none" stroke="#4f7bc7" stroke-width="1.333"/><path d="M344.944 650.085l-73.333 112 117.333 6.667z" fill="#2a4b9f"/><path d="M344.944 650.085l-73.333 112 117.333 6.667z" fill="none" stroke="#2a4b9f" stroke-width="1.333"/><path d="M271.61 762.085L380.945 975.42l8-206.667z" fill="#2a4b9f"/><path d="M271.61 762.085L380.945 975.42l8-206.667z" fill="none" stroke="#2a4b9f" stroke-width="1.333"/><path d="M271.61 762.085l-80 146.667 189.334 66.667z" fill="#2b4ca0"/><path d="M271.61 762.085l-80 146.667 189.334 66.667z" fill="none" stroke="#2b4ca0" stroke-width="1.333"/><path d="M2.278 134.085V267.42L267.61 2.08z" fill="#242962"/><path d="M2.278 134.085V267.42L267.61 2.08z" fill="none" stroke="#242962" stroke-width="1.333"/><path d="M134.277 2.08l-132 132.005L267.612 2.08z" fill="#22265b"/><path d="M134.277 2.08l-132 132.005L267.612 2.08z" fill="none" stroke="#22265b" stroke-width="1.333"/><path d="M275.61 568.752l28 57.333 142.667-104z" fill="#274089"/><path d="M275.61 568.752l28 57.333 142.667-104z" fill="none" stroke="#274089" stroke-width="1.333"/><path d="M303.61 626.085l41.334 24 101.333-128z" fill="#274391"/><path d="M303.61 626.085l41.334 24 101.333-128z" fill="none" stroke="#274391" stroke-width="1.333"/><path d="M2.278 2.08L275.61 568.752z" fill="#242961"/><path d="M2.278 2.08h0L275.61 568.752z" fill="none" stroke="#242961" stroke-width="1.333"/><path d="M380.944 975.419l-128 132 214.667-64z" fill="#3053ab"/><path d="M380.944 975.419l-128 132 214.667-64z" fill="none" stroke="#3053ab" stroke-width="1.333"/><path d="M2.278 267.419v133.333l273.333 168z" fill="#252d65"/><path d="M2.278 267.419v133.333l273.333 168z" fill="none" stroke="#252d65" stroke-width="1.333"/><path d="M206.277 1222.085l45.334 89.334 1.333-204z" fill="#3357af"/><path d="M206.277 1222.085l45.334 89.334 1.333-204z" fill="none" stroke="#3357af" stroke-width="1.333"/><path d="M275.61 568.752l170.667-46.667 46.667-120z" fill="#283f88"/><path d="M275.61 568.752l170.667-46.667 46.667-120z" fill="none" stroke="#283f88" stroke-width="1.333"/><path d="M2.278 267.419L275.61 568.752l217.333-166.667z" fill="#253068"/><path d="M2.278 267.419L275.61 568.752l217.333-166.667z" fill="none" stroke="#253068" stroke-width="1.333"/><path d="M508.944 530.085l-62.667-8 68 40z" fill="#264594"/><path d="M508.944 530.085l-62.667-8 68 40z" fill="none" stroke="#264594" stroke-width="1.333"/><path d="M388.944 768.752l-8 206.667 146.667-120z" fill="#3055ac"/><path d="M388.944 768.752l-8 206.667 146.667-120z" fill="none" stroke="#3055ac" stroke-width="1.333"/><path d="M446.277 522.085l-101.333 128 169.333-88z" fill="#264594"/><path d="M446.277 522.085l-101.333 128 169.333-88z" fill="none" stroke="#264594" stroke-width="1.333"/><path d="M267.61 2.08L2.279 267.419l490.666 134.666z" fill="#26306b"/><path d="M267.61 2.08L2.279 267.419l490.666 134.666z" fill="none" stroke="#26306b" stroke-width="1.333"/><path d="M344.944 650.085l44 118.667 145.333-53.333z" fill="#2a4c9f"/><path d="M344.944 650.085l44 118.667 145.333-53.333z" fill="none" stroke="#2a4c9f" stroke-width="1.333"/><path d="M388.944 768.752l138.667 86.667 6.666-140z" fill="#3054ab"/><path d="M388.944 768.752l138.667 86.667 6.666-140z" fill="none" stroke="#3054ab" stroke-width="1.333"/><path d="M514.277 562.085l-169.333 88 189.333 65.334z" fill="#294a9c"/><path d="M514.277 562.085l-169.333 88 189.333 65.334z" fill="none" stroke="#294a9c" stroke-width="1.333"/><path d="M492.944 402.085l-46.667 120 62.667 8z" fill="#27428e"/><path d="M492.944 402.085l-46.667 120 62.667 8z" fill="none" stroke="#27428e" stroke-width="1.333"/><path d="M400.944 2.08H267.611l225.333 400.005z" fill="#252d65"/><path d="M400.944 2.08H267.611l225.333 400.005z" fill="none" stroke="#252d65" stroke-width="1.333"/><path d="M251.61 1311.419l4 20 145.334 110.661z" fill="#4874c3"/><path d="M251.61 1311.419l4 20 145.334 110.661z" fill="none" stroke="#4874c3" stroke-width="1.333"/><path d="M544.944 1034.085l-77.333 9.334 109.333 73.333z" fill="#4977c4"/><path d="M544.944 1034.085l-77.333 9.334 109.333 73.333z" fill="none" stroke="#4977c4" stroke-width="1.333"/><path d="M380.944 975.419l86.667 68 60-188z" fill="#355eb4"/><path d="M380.944 975.419l86.667 68 60-188z" fill="none" stroke="#355eb4" stroke-width="1.333"/><path d="M252.944 1107.419l-1.333 204 216-268z" fill="#385fb5"/><path d="M252.944 1107.419l-1.333 204 216-268z" fill="none" stroke="#385fb5" stroke-width="1.333"/><path d="M251.61 1311.419l149.334 130.661 184-213.328z" fill="#4773c2"/><path d="M251.61 1311.419l149.334 130.661 184-213.328z" fill="none" stroke="#4773c2" stroke-width="1.333"/><path d="M467.61 1043.419l-216 268 333.334-82.667z" fill="#4673c2"/><path d="M467.61 1043.419l-216 268 333.334-82.667z" fill="none" stroke="#4673c2" stroke-width="1.333"/><path d="M576.944 1116.752l-109.333-73.333 117.333 185.333z" fill="#4e7dc8"/><path d="M576.944 1116.752l-109.333-73.333 117.333 185.333z" fill="none" stroke="#4e7dc8" stroke-width="1.333"/><path d="M514.277 562.085l20 153.334 49.334-41.334z" fill="#2c4da4"/><path d="M514.277 562.085l20 153.334 49.334-41.334z" fill="none" stroke="#2c4da4" stroke-width="1.333"/><path d="M527.61 855.419l-60 188 77.334-9.334z" fill="#3c67ba"/><path d="M527.61 855.419l-60 188 77.334-9.334z" fill="none" stroke="#3c67ba" stroke-width="1.333"/><path d="M534.277 715.419l-6.666 140 76-88z" fill="#3660b5"/><path d="M534.277 715.419l-6.666 140 76-88z" fill="none" stroke="#3660b5" stroke-width="1.333"/><path d="M492.944 402.085l16 128 102.667-25.333z" fill="#27438f"/><path d="M492.944 402.085l16 128 102.667-25.333z" fill="none" stroke="#27438f" stroke-width="1.333"/><path d="M508.944 530.085l5.333 32 97.334-57.333z" fill="#29489b"/><path d="M508.944 530.085l5.333 32 97.334-57.333z" fill="none" stroke="#29489b" stroke-width="1.333"/><path d="M400.944 1442.08h133.333l50.667-213.328z" fill="#4873c2"/><path d="M400.944 1442.08h133.333l50.667-213.328z" fill="none" stroke="#4873c2" stroke-width="1.333"/><path d="M571.61 376.752l-78.666 25.333 118.667 102.667z" fill="#26448f"/><path d="M571.61 376.752l-78.666 25.333 118.667 102.667z" fill="none" stroke="#26448f" stroke-width="1.333"/><path d="M583.61 674.085l-49.333 41.334 69.334 52z" fill="#335aae"/><path d="M583.61 674.085l-49.333 41.334 69.334 52z" fill="none" stroke="#335aae" stroke-width="1.333"/><path d="M492.944 402.085l78.667-25.333 73.333-174.667z" fill="#273e82"/><path d="M492.944 402.085l78.667-25.333 73.333-174.667z" fill="none" stroke="#273e82" stroke-width="1.333"/><path d="M400.944 2.08l92 400.005 152-200z" fill="#273574"/><path d="M400.944 2.08l92 400.005 152-200z" fill="none" stroke="#273574" stroke-width="1.333"/><path d="M534.277 2.08H400.944l244 200.005z" fill="#283475"/><path d="M534.277 2.08H400.944l244 200.005z" fill="none" stroke="#283475" stroke-width="1.333"/><path d="M584.944 1228.752l-50.667 213.328 96-173.328z" fill="#416abc"/><path d="M584.944 1228.752l-50.667 213.328 96-173.328z" fill="none" stroke="#416abc" stroke-width="1.333"/><path d="M584.944 1228.752l45.333 40 25.334-22.667z" fill="#4572c1"/><path d="M584.944 1228.752l45.333 40 25.334-22.667z" fill="none" stroke="#4572c1" stroke-width="1.333"/><path d="M527.61 855.419l17.334 178.666L667.611 923.42z" fill="#5685cc"/><path d="M527.61 855.419l17.334 178.666L667.611 923.42z" fill="none" stroke="#5685cc" stroke-width="1.333"/><path d="M544.944 1034.085l114.667-36 8-74.666z" fill="#628ed1"/><path d="M544.944 1034.085l114.667-36 8-74.666z" fill="none" stroke="#628ed1" stroke-width="1.333"/><path d="M544.944 1034.085l32 82.667 102.667-36z" fill="#5786cd"/><path d="M544.944 1034.085l32 82.667 102.667-36z" fill="none" stroke="#5786cd" stroke-width="1.333"/><path d="M659.61 998.085l-114.666 36 134.667 46.667z" fill="#5f8dd1"/><path d="M659.61 998.085l-114.666 36 134.667 46.667z" fill="none" stroke="#5f8dd1" stroke-width="1.333"/><path d="M604.944 2.08h-70.667l110.667 200.005z" fill="#283677"/><path d="M604.944 2.08h-70.667l110.667 200.005z" fill="none" stroke="#283677" stroke-width="1.333"/><path d="M514.277 562.085l69.334 112 28-169.333z" fill="#2b4ca2"/><path d="M514.277 562.085l69.334 112 28-169.333z" fill="none" stroke="#2b4ca2" stroke-width="1.333"/><path d="M611.61 504.752l-28 169.333 105.334-53.333z" fill="#2c4fa3"/><path d="M611.61 504.752l-28 169.333 105.334-53.333z" fill="none" stroke="#2c4fa3" stroke-width="1.333"/><path d="M603.61 767.419l-76 88 140 68z" fill="#4b7ac6"/><path d="M603.61 767.419l-76 88 140 68z" fill="none" stroke="#4b7ac6" stroke-width="1.333"/><path d="M630.277 1268.752l-96 173.328h133.334z" fill="#4672c1"/><path d="M630.277 1268.752l-96 173.328h133.334z" fill="none" stroke="#4672c1" stroke-width="1.333"/><path d="M659.61 998.085l20 82.667 25.334-16z" fill="#608ed1"/><path d="M659.61 998.085l20 82.667 25.334-16z" fill="none" stroke="#608ed1" stroke-width="1.333"/><path d="M611.61 504.752l77.334 116 14.667-29.333z" fill="#3257ab"/><path d="M611.61 504.752l77.334 116 14.667-29.333z" fill="none" stroke="#3257ab" stroke-width="1.333"/><path d="M644.944 202.085l-73.333 174.667 118.666-137.333z" fill="#273e85"/><path d="M644.944 202.085l-73.333 174.667 118.666-137.333z" fill="none" stroke="#273e85" stroke-width="1.333"/><path d="M576.944 1116.752l8 112 70.667 17.333z" fill="#4270c0"/><path d="M576.944 1116.752l8 112 70.667 17.333z" fill="none" stroke="#4270c0" stroke-width="1.333"/><path d="M576.944 1116.752l78.667 129.333 61.333-81.333z" fill="#416dbe"/><path d="M576.944 1116.752l78.667 129.333 61.333-81.333z" fill="none" stroke="#416dbe" stroke-width="1.333"/><path d="M679.61 1080.752l-102.666 36 140 48z" fill="#416bbd"/><path d="M679.61 1080.752l-102.666 36 140 48z" fill="none" stroke="#416bbd" stroke-width="1.333"/><path d="M716.944 1164.752l-61.333 81.333 69.333-68z" fill="#3f6abc"/><path d="M716.944 1164.752l-61.333 81.333 69.333-68z" fill="none" stroke="#3f6abc" stroke-width="1.333"/><path d="M604.944 2.08l40 200.005L667.611 2.08z" fill="#263a78"/><path d="M604.944 2.08l40 200.005L667.611 2.08z" fill="none" stroke="#263a78" stroke-width="1.333"/><path d="M724.944 1178.085l-69.333 68 90.666-49.333z" fill="#406cbe"/><path d="M724.944 1178.085l-69.333 68 90.666-49.333z" fill="none" stroke="#406cbe" stroke-width="1.333"/><path d="M704.944 1064.752l-25.333 16 37.333 84z" fill="#4572c1"/><path d="M704.944 1064.752l-25.333 16 37.333 84z" fill="none" stroke="#4572c1" stroke-width="1.333"/><path d="M583.61 674.085l20 93.334 85.334-146.667z" fill="#365db1"/><path d="M583.61 674.085l20 93.334 85.334-146.667z" fill="none" stroke="#365db1" stroke-width="1.333"/><path d="M716.944 1164.752l8 13.333 72-32z" fill="#3e69bc"/><path d="M716.944 1164.752l8 13.333 72-32z" fill="none" stroke="#3e69bc" stroke-width="1.333"/><path d="M724.944 1178.085l21.333 18.667 50.667-50.667z" fill="#3f6bbd"/><path d="M724.944 1178.085l21.333 18.667 50.667-50.667z" fill="none" stroke="#3f6bbd" stroke-width="1.333"/><path d="M799.61 1364.747l-132 77.333h133.334z" fill="#4876c4"/><path d="M799.61 1364.747l-132 77.333h133.334z" fill="none" stroke="#4876c4" stroke-width="1.333"/><path d="M655.61 1246.085l-25.333 22.667 169.334 95.995z" fill="#426fbf"/><path d="M655.61 1246.085l-25.333 22.667 169.334 95.995z" fill="none" stroke="#426fbf" stroke-width="1.333"/><path d="M630.277 1268.752l37.334 173.328 132-77.333z" fill="#446fc0"/><path d="M630.277 1268.752l37.334 173.328 132-77.333z" fill="none" stroke="#446fc0" stroke-width="1.333"/><path d="M704.944 1064.752l12 100 80-18.667z" fill="#406ebf"/><path d="M704.944 1064.752l12 100 80-18.667z" fill="none" stroke="#406ebf" stroke-width="1.333"/><path d="M796.944 1146.085l-50.667 50.667 69.334-25.333z" fill="#416cbd"/><path d="M796.944 1146.085l-50.667 50.667 69.334-25.333z" fill="none" stroke="#416cbd" stroke-width="1.333"/><path d="M800.944 2.08H667.611l150.666 32z" fill="#26458f"/><path d="M800.944 2.08H667.611l150.666 32z" fill="none" stroke="#26458f" stroke-width="1.333"/><path d="M746.277 1196.752l-90.666 49.333 144 118.662z" fill="#3f6cbe"/><path d="M746.277 1196.752l-90.666 49.333 144 118.662z" fill="none" stroke="#3f6cbe" stroke-width="1.333"/><path d="M688.944 620.752l-85.333 146.667 236-65.334z" fill="#5681c7"/><path d="M688.944 620.752l-85.333 146.667 236-65.334z" fill="none" stroke="#5681c7" stroke-width="1.333"/><path d="M667.61 2.08l-22.666 200.005L818.277 34.08z" fill="#254282"/><path d="M667.61 2.08l-22.666 200.005L818.277 34.08z" fill="none" stroke="#254282" stroke-width="1.333"/><path d="M688.944 620.752l150.667 81.333 12-25.333z" fill="#6e95cf"/><path d="M688.944 620.752l150.667 81.333 12-25.333z" fill="none" stroke="#6e95cf" stroke-width="1.333"/><path d="M603.61 767.419l64 156 188-120z" fill="#729ad6"/><path d="M603.61 767.419l64 156 188-120z" fill="none" stroke="#729ad6" stroke-width="1.333"/><path d="M839.61 702.085l-236 65.334 252 36z" fill="#85a8db"/><path d="M839.61 702.085l-236 65.334 252 36z" fill="none" stroke="#85a8db" stroke-width="1.333"/><path d="M703.61 591.419l-14.666 29.333 162.667 56z" fill="#4e79bf"/><path d="M703.61 591.419l-14.666 29.333 162.667 56z" fill="none" stroke="#4e79bf" stroke-width="1.333"/><path d="M644.944 202.085l45.333 37.334 128-205.339z" fill="#26448e"/><path d="M644.944 202.085l45.333 37.334 128-205.339z" fill="none" stroke="#26448e" stroke-width="1.333"/><path d="M667.61 923.419l-8 74.666 45.334 66.667z" fill="#6d97d6"/><path d="M667.61 923.419l-8 74.666 45.334 66.667z" fill="none" stroke="#6d97d6" stroke-width="1.333"/><path d="M879.61 275.419l-189.333-36 200 53.333z" fill="#28408b"/><path d="M879.61 275.419l-189.333-36 200 53.333z" fill="none" stroke="#28408b" stroke-width="1.333"/><path d="M571.61 376.752l40 128 78.667-265.333z" fill="#27428c"/><path d="M571.61 376.752l40 128 78.667-265.333z" fill="none" stroke="#27428c" stroke-width="1.333"/><path d="M746.277 1196.752l53.334 167.995 16-193.328z" fill="#3c69bb"/><path d="M746.277 1196.752l53.334 167.995 16-193.328z" fill="none" stroke="#3c69bb" stroke-width="1.333"/><path d="M611.61 504.752l92 86.667 208-109.334z" fill="#2e52a5"/><path d="M611.61 504.752l92 86.667 208-109.334z" fill="none" stroke="#2e52a5" stroke-width="1.333"/><path d="M796.944 1146.085l18.667 25.334 92-70.667z" fill="#416ebf"/><path d="M796.944 1146.085l18.667 25.334 92-70.667z" fill="none" stroke="#416ebf" stroke-width="1.333"/><path d="M894.277 59.413l-76-25.333 101.334 97.339z" fill="#283d83"/><path d="M894.277 59.413l-76-25.333 101.334 97.339z" fill="none" stroke="#283d83" stroke-width="1.333"/><path d="M818.277 34.08l-128 205.339 229.334-108z" fill="#273e85"/><path d="M818.277 34.08l-128 205.339 229.334-108z" fill="none" stroke="#273e85" stroke-width="1.333"/><path d="M690.277 239.419l189.334 36 40-144z" fill="#28408b"/><path d="M690.277 239.419l189.334 36 40-144z" fill="none" stroke="#28408b" stroke-width="1.333"/><path d="M890.277 292.752l-278.666 212 300-22.667z" fill="#2c4fa3"/><path d="M890.277 292.752l-278.666 212 300-22.667z" fill="none" stroke="#2c4fa3" stroke-width="1.333"/><path d="M704.944 1064.752l92 81.333 110.667-45.333z" fill="#4471c1"/><path d="M704.944 1064.752l92 81.333 110.667-45.333z" fill="none" stroke="#4471c1" stroke-width="1.333"/><path d="M690.277 239.419l-78.666 265.333 278.666-212z" fill="#264594"/><path d="M690.277 239.419l-78.666 265.333 278.666-212z" fill="none" stroke="#264594" stroke-width="1.333"/><path d="M704.944 1064.752l202.667 36 24-52z" fill="#3d6abc"/><path d="M704.944 1064.752l202.667 36 24-52z" fill="none" stroke="#3d6abc" stroke-width="1.333"/><path d="M800.944 2.08l17.333 32 116-32z" fill="#252f67"/><path d="M800.944 2.08l17.333 32 116-32z" fill="none" stroke="#252f67" stroke-width="1.333"/><path d="M818.277 34.08l76 25.333 40-57.333z" fill="#283d85"/><path d="M818.277 34.08l76 25.333 40-57.333z" fill="none" stroke="#283d85" stroke-width="1.333"/><path d="M799.61 1364.747l1.334 77.333h133.333z" fill="#4573c2"/><path d="M799.61 1364.747l1.334 77.333h133.333z" fill="none" stroke="#4573c2" stroke-width="1.333"/><path d="M667.61 923.419l37.334 141.333 226.667-16z" fill="#6693d4"/><path d="M667.61 923.419l37.334 141.333 226.667-16z" fill="none" stroke="#6693d4" stroke-width="1.333"/><path d="M703.61 591.419l148 85.333 60-194.667z" fill="#4c75be"/><path d="M703.61 591.419l148 85.333 60-194.667z" fill="none" stroke="#4c75be" stroke-width="1.333"/><path d="M890.277 292.752l21.334 189.333 56-109.333z" fill="#2d529f"/><path d="M890.277 292.752l21.334 189.333 56-109.333z" fill="none" stroke="#2d529f" stroke-width="1.333"/><path d="M855.61 803.419l-188 120 264 125.333z" fill="#7ca1db"/><path d="M855.61 803.419l-188 120 264 125.333z" fill="none" stroke="#7ca1db" stroke-width="1.333"/><path d="M931.61 1048.752l-24 52 80-42.667z" fill="#416dbe"/><path d="M931.61 1048.752l-24 52 80-42.667z" fill="none" stroke="#416dbe" stroke-width="1.333"/><path d="M815.61 1171.419l-16 193.328 188-35.995z" fill="#3e6bbd"/><path d="M815.61 1171.419l-16 193.328 188-35.995z" fill="none" stroke="#3e6bbd" stroke-width="1.333"/><path d="M799.61 1364.747l134.667 77.333 53.334-113.328z" fill="#4572c2"/><path d="M799.61 1364.747l134.667 77.333 53.334-113.328z" fill="none" stroke="#4572c2" stroke-width="1.333"/><path d="M894.277 59.413l25.334 72.006 65.333-65.339z" fill="#283e86"/><path d="M894.277 59.413l25.334 72.006 65.333-65.339z" fill="none" stroke="#283e86" stroke-width="1.333"/><path d="M934.277 2.08l-40 57.333 90.667 6.667z" fill="#273c81"/><path d="M934.277 2.08l-40 57.333 90.667 6.667z" fill="none" stroke="#273c81" stroke-width="1.333"/><path d="M911.61 482.085l-60 194.667 150.667-48z" fill="#648ec9"/><path d="M911.61 482.085l-60 194.667 150.667-48z" fill="none" stroke="#648ec9" stroke-width="1.333"/><path d="M890.277 292.752l77.334 80 44-26.667z" fill="#284a98"/><path d="M890.277 292.752l77.334 80 44-26.667z" fill="none" stroke="#284a98" stroke-width="1.333"/><path d="M987.61 1328.752l-53.333 113.328 93.334-8z" fill="#4671c1"/><path d="M987.61 1328.752l-53.333 113.328 93.334-8z" fill="none" stroke="#4671c1" stroke-width="1.333"/><path d="M984.944 66.08l-65.333 65.339 108-34.672z" fill="#283d85"/><path d="M984.944 66.08l-65.333 65.339 108-34.672z" fill="none" stroke="#283d85" stroke-width="1.333"/><path d="M907.61 1100.752l-92 70.667 172 157.333z" fill="#3a66ba"/><path d="M907.61 1100.752l-92 70.667 172 157.333z" fill="none" stroke="#3a66ba" stroke-width="1.333"/><path d="M987.61 1058.085l-80 42.667 150.667 17.333z" fill="#3d67bb"/><path d="M987.61 1058.085l-80 42.667 150.667 17.333z" fill="none" stroke="#3d67bb" stroke-width="1.333"/><path d="M851.61 676.752l-12 25.333 16 101.334z" fill="#8ba9db"/><path d="M851.61 676.752l-12 25.333 16 101.334z" fill="none" stroke="#8ba9db" stroke-width="1.333"/><path d="M934.277 2.08l50.667 64 81.333-64z" fill="#273c7f"/><path d="M934.277 2.08l50.667 64 81.333-64z" fill="none" stroke="#273c7f" stroke-width="1.333"/><path d="M984.944 66.08l42.667 30.667 38.666-94.667z" fill="#283b80"/><path d="M984.944 66.08l42.667 30.667 38.666-94.667z" fill="none" stroke="#283b80" stroke-width="1.333"/><path d="M851.61 676.752l4 126.667 146.667-174.667z" fill="#93aedd"/><path d="M851.61 676.752l4 126.667 146.667-174.667z" fill="none" stroke="#93aedd" stroke-width="1.333"/><path d="M879.61 275.419l10.667 17.333 29.334-161.333z" fill="#26438c"/><path d="M879.61 275.419l10.667 17.333 29.334-161.333z" fill="none" stroke="#26438c" stroke-width="1.333"/><path d="M907.61 1100.752l80 228 70.667-210.667z" fill="#3765b9"/><path d="M907.61 1100.752l80 228 70.667-210.667z" fill="none" stroke="#3765b9" stroke-width="1.333"/><path d="M1011.61 346.085l-44 26.667 128 61.333z" fill="#2c519b"/><path d="M1011.61 346.085l-44 26.667 128 61.333z" fill="none" stroke="#2c519b" stroke-width="1.333"/><path d="M967.61 372.752l-56 109.333 184-48z" fill="#3861a9"/><path d="M967.61 372.752l-56 109.333 184-48z" fill="none" stroke="#3861a9" stroke-width="1.333"/><path d="M1058.277 1118.085l-10.666 190.667 45.333-25.333z" fill="#3965b9"/><path d="M1058.277 1118.085l-10.666 190.667 45.333-25.333z" fill="none" stroke="#3965b9" stroke-width="1.333"/><path d="M1047.61 1308.752l-20 125.328 38.667 8z" fill="#4270c0"/><path d="M1047.61 1308.752l-20 125.328 38.667 8z" fill="none" stroke="#4270c0" stroke-width="1.333"/><path d="M987.61 1328.752l60-20 10.667-190.667z" fill="#3864b8"/><path d="M987.61 1328.752l60-20 10.667-190.667z" fill="none" stroke="#3864b8" stroke-width="1.333"/><path d="M987.61 1328.752l40 105.328 20-125.328z" fill="#3e6bbd"/><path d="M987.61 1328.752l40 105.328 20-125.328z" fill="none" stroke="#3e6bbd" stroke-width="1.333"/><path d="M919.61 131.419l-29.333 161.333 121.334 53.333z" fill="#26458f"/><path d="M919.61 131.419l-29.333 161.333 121.334 53.333z" fill="none" stroke="#26458f" stroke-width="1.333"/><path d="M911.61 482.085l90.667 146.667 93.334-194.667z" fill="#4b76b9"/><path d="M911.61 482.085l90.667 146.667 93.334-194.667z" fill="none" stroke="#4b76b9" stroke-width="1.333"/><path d="M919.61 131.419l92 214.666 16-249.338z" fill="#283f87"/><path d="M919.61 131.419l92 214.666 16-249.338z" fill="none" stroke="#283f87" stroke-width="1.333"/><path d="M1047.61 1308.752l18.667 133.328 70.667-110.661z" fill="#406cbe"/><path d="M1047.61 1308.752l18.667 133.328 70.667-110.661z" fill="none" stroke="#406cbe" stroke-width="1.333"/><path d="M1092.944 1283.419l-45.333 25.333 89.333 22.667z" fill="#3865b9"/><path d="M1092.944 1283.419l-45.333 25.333 89.333 22.667z" fill="none" stroke="#3865b9" stroke-width="1.333"/><path d="M855.61 803.419l76 245.333 56 9.333z" fill="#355fb5"/><path d="M855.61 803.419l76 245.333 56 9.333z" fill="none" stroke="#355fb5" stroke-width="1.333"/><path d="M855.61 803.419l132 254.666 176-180z" fill="#325ab1"/><path d="M855.61 803.419l132 254.666 176-180z" fill="none" stroke="#325ab1" stroke-width="1.333"/><path d="M987.61 1058.085l70.667 60 120-72z" fill="#335db1"/><path d="M987.61 1058.085l70.667 60 120-72z" fill="none" stroke="#335db1" stroke-width="1.333"/><path d="M1058.277 1118.085l100-32 20-40z" fill="#3059ab"/><path d="M1058.277 1118.085l100-32 20-40z" fill="none" stroke="#3059ab" stroke-width="1.333"/><path d="M1132.944 676.752L855.611 803.419l308 74.666z" fill="#618acf"/><path d="M1132.944 676.752L855.611 803.419l308 74.666z" fill="none" stroke="#618acf" stroke-width="1.333"/><path d="M1002.277 628.752L855.611 803.419l277.333-126.667z" fill="#92addc"/><path d="M1002.277 628.752L855.611 803.419l277.333-126.667z" fill="none" stroke="#92addc" stroke-width="1.333"/><path d="M1136.944 1331.419l-70.667 110.661h133.334z" fill="#416cbd"/><path d="M1136.944 1331.419l-70.667 110.661h133.334z" fill="none" stroke="#416cbd" stroke-width="1.333"/><path d="M1163.61 878.085l-176 180 190.667-12z" fill="#355eb4"/><path d="M1163.61 878.085l-176 180 190.667-12z" fill="none" stroke="#355eb4" stroke-width="1.333"/><path d="M1095.61 434.085l-93.333 194.667 129.334-186.667z" fill="#517db9"/><path d="M1095.61 434.085l-93.333 194.667 129.334-186.667z" fill="none" stroke="#517db9" stroke-width="1.333"/><path d="M1011.61 346.085l84 88 117.334-100z" fill="#294c94"/><path d="M1011.61 346.085l84 88 117.334-100z" fill="none" stroke="#294c94" stroke-width="1.333"/><path d="M1095.61 434.085l36 8 81.334-108z" fill="#2d5195"/><path d="M1095.61 434.085l36 8 81.334-108z" fill="none" stroke="#2d5195" stroke-width="1.333"/><path d="M1066.277 2.08l-38.666 94.667 172-94.667z" fill="#273c7f"/><path d="M1066.277 2.08l-38.666 94.667 172-94.667z" fill="none" stroke="#273c7f" stroke-width="1.333"/><path d="M1058.277 1118.085l34.667 165.334 65.333-197.334z" fill="#3560b6"/><path d="M1058.277 1118.085l34.667 165.334 65.333-197.334z" fill="none" stroke="#3560b6" stroke-width="1.333"/><path d="M1131.61 442.085l-129.333 186.667 130.667 48z" fill="#6991c7"/><path d="M1131.61 442.085l-129.333 186.667 130.667 48z" fill="none" stroke="#6991c7" stroke-width="1.333"/><path d="M1027.61 1434.08l-93.333 8h132z" fill="#4773c2"/><path d="M1027.61 1434.08l-93.333 8h132z" fill="none" stroke="#4773c2" stroke-width="1.333"/><path d="M1132.944 676.752l30.667 201.333 77.333-125.333z" fill="#2a4fa7"/><path d="M1132.944 676.752l30.667 201.333 77.333-125.333z" fill="none" stroke="#2a4fa7" stroke-width="1.333"/><path d="M1027.61 96.747l-16 249.338 201.334-12z" fill="#27428b"/><path d="M1027.61 96.747l-16 249.338 201.334-12z" fill="none" stroke="#27428b" stroke-width="1.333"/><path d="M1132.944 676.752l108 76 17.333-58.667z" fill="#3961b4"/><path d="M1132.944 676.752l108 76 17.333-58.667z" fill="none" stroke="#3961b4" stroke-width="1.333"/><path d="M1131.61 442.085l1.334 234.667 149.333-152z" fill="#6088bf"/><path d="M1131.61 442.085l1.334 234.667 149.333-152z" fill="none" stroke="#6088bf" stroke-width="1.333"/><path d="M1092.944 1283.419l44 48 161.333-64z" fill="#3a61b6"/><path d="M1092.944 1283.419l44 48 161.333-64z" fill="none" stroke="#3a61b6" stroke-width="1.333"/><path d="M1027.61 96.747l185.334 237.338 78.667-86.666z" fill="#254181"/><path d="M1027.61 96.747l185.334 237.338 78.667-86.666z" fill="none" stroke="#254181" stroke-width="1.333"/><path d="M1136.944 1331.419l62.667 110.661 104-110.661z" fill="#3e69bc"/><path d="M1136.944 1331.419l62.667 110.661 104-110.661z" fill="none" stroke="#3e69bc" stroke-width="1.333"/><path d="M1298.277 1267.419l-161.333 64h166.667z" fill="#3761b6"/><path d="M1298.277 1267.419l-161.333 64h166.667z" fill="none" stroke="#3761b6" stroke-width="1.333"/><path d="M1158.277 1086.085l-65.333 197.334 205.333-16z" fill="#335cb1"/><path d="M1158.277 1086.085l-65.333 197.334 205.333-16z" fill="none" stroke="#335cb1" stroke-width="1.333"/><path d="M1240.944 752.752l-77.333 125.333 133.333-1.333z" fill="#2e52a3"/><path d="M1240.944 752.752l-77.333 125.333 133.333-1.333z" fill="none" stroke="#2e52a3" stroke-width="1.333"/><path d="M1132.944 676.752l125.333 17.333 24-169.333z" fill="#517dc0"/><path d="M1132.944 676.752l125.333 17.333 24-169.333z" fill="none" stroke="#517dc0" stroke-width="1.333"/><path d="M1303.61 1331.419l-104 110.661 117.334-42.667z" fill="#335db2"/><path d="M1303.61 1331.419l-104 110.661 117.334-42.667z" fill="none" stroke="#335db2" stroke-width="1.333"/><path d="M1199.61 1442.08l108-5.333 9.334-37.334z" fill="#3761b6"/><path d="M1199.61 1442.08l108-5.333 9.334-37.334z" fill="none" stroke="#3761b6" stroke-width="1.333"/><path d="M1199.61 2.08l-172 94.667 264 150.672z" fill="#273c7d"/><path d="M1199.61 2.08l-172 94.667 264 150.672z" fill="none" stroke="#273c7d" stroke-width="1.333"/><path d="M1163.61 878.085l14.667 168 118.667-169.333z" fill="#2f58aa"/><path d="M1163.61 878.085l14.667 168 118.667-169.333z" fill="none" stroke="#2f58aa" stroke-width="1.333"/><path d="M1212.944 334.085l-81.333 108 150.666 82.667z" fill="#3c66a5"/><path d="M1212.944 334.085l-81.333 108 150.666 82.667z" fill="none" stroke="#3c66a5" stroke-width="1.333"/><path d="M1158.277 1086.085l140 181.334 38.67-72z" fill="#3058ac"/><path d="M1158.277 1086.085l140 181.334 38.67-72z" fill="none" stroke="#3058ac" stroke-width="1.333"/><path d="M1316.944 1399.413l-9.333 37.334 25.333 5.333z" fill="#3760b5"/><path d="M1316.944 1399.413l-9.333 37.334 25.333 5.333z" fill="none" stroke="#3760b5" stroke-width="1.333"/><path d="M1296.944 876.752l-118.667 169.333 194.67-69.333z" fill="#2b5095"/><path d="M1296.944 876.752l-118.667 169.333 194.67-69.333z" fill="none" stroke="#2b5095" stroke-width="1.333"/><path d="M1178.277 1046.085l182.67 9.334 12-78.667z" fill="#2c529d"/><path d="M1178.277 1046.085l182.67 9.334 12-78.667z" fill="none" stroke="#2c529d" stroke-width="1.333"/><path d="M1178.277 1046.085l158.67 149.334 24-140z" fill="#2e54a4"/><path d="M1178.277 1046.085l158.67 149.334 24-140z" fill="none" stroke="#2e54a4" stroke-width="1.333"/><path d="M1178.277 1046.085l-20 40 178.67 109.334z" fill="#2f58aa"/><path d="M1178.277 1046.085l-20 40 178.67 109.334z" fill="none" stroke="#2f58aa" stroke-width="1.333"/><path d="M1212.944 334.085l69.333 190.667 112.003-92z" fill="#335896"/><path d="M1212.944 334.085l69.333 190.667 112.003-92z" fill="none" stroke="#335896" stroke-width="1.333"/><path d="M1199.61 2.08l92 245.339L1332.945 2.08z" fill="#273a78"/><path d="M1199.61 2.08l92 245.339L1332.945 2.08z" fill="none" stroke="#273a78" stroke-width="1.333"/><path d="M1298.277 1267.419l5.334 64 109.336 23.994z" fill="#2e54a6"/><path d="M1298.277 1267.419l5.334 64 109.336 23.994z" fill="none" stroke="#2e54a6" stroke-width="1.333"/><path d="M1303.61 1331.419l13.334 67.994 96.003-44z" fill="#315aaf"/><path d="M1303.61 1331.419l13.334 67.994 96.003-44z" fill="none" stroke="#315aaf" stroke-width="1.333"/><path d="M1316.944 1399.413l16 42.667 80.003-86.667z" fill="#3763b7"/><path d="M1316.944 1399.413l16 42.667 80.003-86.667z" fill="none" stroke="#3763b7" stroke-width="1.333"/><path d="M1291.61 247.419l-78.666 86.666 181.336 98.667z" fill="#254583"/><path d="M1291.61 247.419l-78.666 86.666 181.336 98.667z" fill="none" stroke="#254583" stroke-width="1.333"/><path d="M1258.277 694.085l-17.333 58.667 217.336-20z" fill="#2f57a6"/><path d="M1258.277 694.085l-17.333 58.667 217.336-20z" fill="none" stroke="#2f57a6" stroke-width="1.333"/><path d="M1412.947 1355.413l-80.003 86.667h133.336z" fill="#4574c0"/><path d="M1412.947 1355.413l-80.003 86.667h133.336z" fill="none" stroke="#4574c0" stroke-width="1.333"/><path d="M1240.944 752.752l56 124 161.336-144z" fill="#254486"/><path d="M1240.944 752.752l56 124 161.336-144z" fill="none" stroke="#254486" stroke-width="1.333"/><path d="M1336.947 1195.419l-38.67 72 114.67 87.994z" fill="#2b519e"/><path d="M1336.947 1195.419l-38.67 72 114.67 87.994z" fill="none" stroke="#2b519e" stroke-width="1.333"/><path d="M1412.947 1355.413l53.333 86.667 22.667-76z" fill="#5784c6"/><path d="M1412.947 1355.413l53.333 86.667 22.667-76z" fill="none" stroke="#5784c6" stroke-width="1.333"/><path d="M1332.944 2.08l-41.333 245.339L1466.28 2.08z" fill="#263872"/><path d="M1332.944 2.08l-41.333 245.339L1466.28 2.08z" fill="none" stroke="#263872" stroke-width="1.333"/><path d="M1282.277 524.752l-24 169.333 200.003 38.667z" fill="#3964ab"/><path d="M1282.277 524.752l-24 169.333 200.003 38.667z" fill="none" stroke="#3964ab" stroke-width="1.333"/><path d="M1296.944 876.752l76.003 100 85.333-244z" fill="#27478f"/><path d="M1296.944 876.752l76.003 100 85.333-244z" fill="none" stroke="#27478f" stroke-width="1.333"/><path d="M1307.61 1436.747l-108 5.333h133.334z" fill="#3764b8"/><path d="M1307.61 1436.747l-108 5.333h133.334z" fill="none" stroke="#3764b8" stroke-width="1.333"/><path d="M1394.28 432.752l-112.003 92 176.003 208z" fill="#294b91"/><path d="M1394.28 432.752l-112.003 92 176.003 208z" fill="none" stroke="#294b91" stroke-width="1.333"/><path d="M1488.947 1366.08l-22.667 76h133.333z" fill="#83acd2"/><path d="M1488.947 1366.08l-22.667 76h133.333z" fill="none" stroke="#83acd2" stroke-width="1.333"/><path d="M1372.947 976.752l-12 78.667 226.666-76z" fill="#294d98"/><path d="M1372.947 976.752l-12 78.667 226.666-76z" fill="none" stroke="#294d98" stroke-width="1.333"/><path d="M1336.947 1195.419l76 159.994 76 10.667z" fill="#315aae"/><path d="M1336.947 1195.419l76 159.994 76 10.667z" fill="none" stroke="#315aae" stroke-width="1.333"/><path d="M1488.947 1366.08l110.666 76 12-61.333z" fill="#7d8eaf"/><path d="M1488.947 1366.08l110.666 76 12-61.333z" fill="none" stroke="#7d8eaf" stroke-width="1.333"/><path d="M1458.28 732.752l-85.333 244 214.666 2.667z" fill="#23447d"/><path d="M1458.28 732.752l-85.333 244 214.666 2.667z" fill="none" stroke="#23447d" stroke-width="1.333"/><path d="M1587.613 979.419l-226.666 76 281.333 24z" fill="#233b72"/><path d="M1587.613 979.419l-226.666 76 281.333 24z" fill="none" stroke="#233b72" stroke-width="1.333"/><path d="M1566.28 740.752l-108-8 129.333 246.667z" fill="#223e73"/><path d="M1566.28 740.752l-108-8 129.333 246.667z" fill="none" stroke="#223e73" stroke-width="1.333"/><path d="M1394.28 432.752l64 300 128-289.333z" fill="#233f77"/><path d="M1394.28 432.752l64 300 128-289.333z" fill="none" stroke="#233f77" stroke-width="1.333"/><path d="M1394.28 432.752l192 10.667 62.667-132z" fill="#23396d"/><path d="M1394.28 432.752l192 10.667 62.667-132z" fill="none" stroke="#23396d" stroke-width="1.333"/><path d="M1611.613 1380.747l-12 61.333 52-48z" fill="#4c72a5"/><path d="M1611.613 1380.747l-12 61.333 52-48z" fill="none" stroke="#4c72a5" stroke-width="1.333"/><path d="M1488.947 1366.08l122.666 14.667 38.667-54.662z" fill="#6481af"/><path d="M1488.947 1366.08l122.666 14.667 38.667-54.662z" fill="none" stroke="#6481af" stroke-width="1.333"/><path d="M1291.61 247.419l102.67 185.333 254.667-121.333z" fill="#233c72"/><path d="M1291.61 247.419l102.67 185.333 254.667-121.333z" fill="none" stroke="#233c72" stroke-width="1.333"/><path d="M1360.947 1055.419l-24 140 305.333-116z" fill="#284991"/><path d="M1360.947 1055.419l-24 140 305.333-116z" fill="none" stroke="#284991" stroke-width="1.333"/><path d="M1336.947 1195.419l152 170.661 177.333-167.995z" fill="#294c92"/><path d="M1336.947 1195.419l152 170.661 177.333-167.995z" fill="none" stroke="#294c92" stroke-width="1.333"/><path d="M1642.28 1079.419l-305.333 116 329.333 2.666z" fill="#23437c"/><path d="M1642.28 1079.419l-305.333 116 329.333 2.666z" fill="none" stroke="#23437c" stroke-width="1.333"/><path d="M1666.28 668.752l-100 72 108 26.667z" fill="#223e71"/><path d="M1666.28 668.752l-100 72 108 26.667z" fill="none" stroke="#223e71" stroke-width="1.333"/><path d="M1488.947 1366.08l161.333-39.995 16-128z" fill="#2d4d8d"/><path d="M1488.947 1366.08l161.333-39.995 16-128z" fill="none" stroke="#2d4d8d" stroke-width="1.333"/><path d="M1586.28 443.419l-20 297.333 100-72z" fill="#213564"/><path d="M1586.28 443.419l-20 297.333 100-72z" fill="none" stroke="#213564" stroke-width="1.333"/><path d="M1650.28 1326.085l-38.667 54.662 40 13.333z" fill="#5b7cb3"/><path d="M1650.28 1326.085l-38.667 54.662 40 13.333z" fill="none" stroke="#5b7cb3" stroke-width="1.333"/><path d="M1466.28 2.08l-174.67 245.339 357.337 64z" fill="#24356c"/><path d="M1466.28 2.08l-174.67 245.339 357.337 64z" fill="none" stroke="#24356c" stroke-width="1.333"/><path d="M1458.28 732.752l108 8 20-297.333z" fill="#223768"/><path d="M1458.28 732.752l108 8 20-297.333z" fill="none" stroke="#223768" stroke-width="1.333"/><path d="M1566.28 740.752l21.333 238.667 86.667-212z" fill="#23437f"/><path d="M1566.28 740.752l21.333 238.667 86.667-212z" fill="none" stroke="#23437f" stroke-width="1.333"/><path d="M1599.613 2.08H1466.28l182.667 309.339z" fill="#233367"/><path d="M1599.613 2.08H1466.28l182.667 309.339z" fill="none" stroke="#233367" stroke-width="1.333"/><path d="M1651.613 1394.08l-52 48h133.334z" fill="#476ba4"/><path d="M1651.613 1394.08l-52 48h133.334z" fill="none" stroke="#476ba4" stroke-width="1.333"/><path d="M1648.947 311.419l-62.667 132 112-118.667z" fill="#23376a"/><path d="M1648.947 311.419l-62.667 132 112-118.667z" fill="none" stroke="#23376a" stroke-width="1.333"/><path d="M1698.28 324.752l-112 118.667 192-2.667z" fill="#23386b"/><path d="M1698.28 324.752l-112 118.667 192-2.667z" fill="none" stroke="#23386b" stroke-width="1.333"/><path d="M1666.28 668.752l8 98.667 110.667-90.667z" fill="#233f78"/><path d="M1666.28 668.752l8 98.667 110.667-90.667z" fill="none" stroke="#233f78" stroke-width="1.333"/><path d="M1760.947 306.085l-62.667 18.667 80 116z" fill="#23396d"/><path d="M1760.947 306.085l-62.667 18.667 80 116z" fill="none" stroke="#23396d" stroke-width="1.333"/><path d="M1586.28 443.419l80 225.333 112-228z" fill="#223565"/><path d="M1586.28 443.419l80 225.333 112-228z" fill="none" stroke="#223565" stroke-width="1.333"/><path d="M1648.947 311.419l49.333 13.333 62.667-18.667z" fill="#23396d"/><path d="M1648.947 311.419l49.333 13.333 62.667-18.667z" fill="none" stroke="#23396d" stroke-width="1.333"/><path d="M1599.613 2.08l49.334 309.339 84-309.339z" fill="#202d5a"/><path d="M1599.613 2.08l49.334 309.339 84-309.339z" fill="none" stroke="#202d5a" stroke-width="1.333"/><path d="M1650.28 1326.085l1.333 67.995 81.334 48z" fill="#577cae"/><path d="M1650.28 1326.085l1.333 67.995 81.334 48z" fill="none" stroke="#577cae" stroke-width="1.333"/><path d="M1778.28 440.752l-112 228 118.667 8z" fill="#203563"/><path d="M1778.28 440.752l-112 228 118.667 8z" fill="none" stroke="#203563" stroke-width="1.333"/><path d="M1732.947 2.08l-84 309.339 112-5.334z" fill="#223364"/><path d="M1732.947 2.08l-84 309.339 112-5.334z" fill="none" stroke="#223364" stroke-width="1.333"/><path d="M1732.947 2.08l28 304.005 70.666-18.666z" fill="#24376d"/><path d="M1732.947 2.08l28 304.005 70.666-18.666z" fill="none" stroke="#24376d" stroke-width="1.333"/><path d="M1760.947 306.085l17.333 134.667 53.333-153.333z" fill="#24376c"/><path d="M1760.947 306.085l17.333 134.667 53.333-153.333z" fill="none" stroke="#24376c" stroke-width="1.333"/><path d="M1642.28 1079.419l24 118.666 246.667-114.666z" fill="#1b3053"/><path d="M1642.28 1079.419l24 118.666 246.667-114.666z" fill="none" stroke="#1b3053" stroke-width="1.333"/><path d="M1666.28 1198.085l-16 128 274.667 11.995z" fill="#3f5f9f"/><path d="M1666.28 1198.085l-16 128 274.667 11.995z" fill="none" stroke="#3f5f9f" stroke-width="1.333"/><path d="M1650.28 1326.085l82.667 115.995 192-104z" fill="#305192"/><path d="M1650.28 1326.085l82.667 115.995 192-104z" fill="none" stroke="#305192" stroke-width="1.333"/><path d="M1732.947 1442.08h133.333l58.667-104z" fill="#294987"/><path d="M1732.947 1442.08h133.333l58.667-104z" fill="none" stroke="#294987" stroke-width="1.333"/><path d="M1587.613 979.419l54.667 100 298.667-148z" fill="#23386b"/><path d="M1587.613 979.419l54.667 100 298.667-148z" fill="none" stroke="#23386b" stroke-width="1.333"/><path d="M1642.28 1079.419l270.667 4 28-152z" fill="#223d72"/><path d="M1642.28 1079.419l270.667 4 28-152z" fill="none" stroke="#223d72" stroke-width="1.333"/><path d="M1674.28 767.419l-86.667 212 353.334-48z" fill="#1f315b"/><path d="M1674.28 767.419l-86.667 212 353.334-48z" fill="none" stroke="#1f315b" stroke-width="1.333"/><path d="M1732.947 2.08l98.666 285.339L1866.28 2.08z" fill="#233569"/><path d="M1732.947 2.08l98.666 285.339L1866.28 2.08z" fill="none" stroke="#233569" stroke-width="1.333"/><path d="M1666.28 1198.085l258.667 139.995 28-45.328z" fill="#2a4b90"/><path d="M1666.28 1198.085l258.667 139.995 28-45.328z" fill="none" stroke="#2a4b90" stroke-width="1.333"/><path d="M1924.947 1338.08l-58.667 104 106.667-80z" fill="#244582"/><path d="M1924.947 1338.08l-58.667 104 106.667-80z" fill="none" stroke="#244582" stroke-width="1.333"/><path d="M1952.947 1292.752l-28 45.328 48 24z" fill="#264689"/><path d="M1952.947 1292.752l-28 45.328 48 24z" fill="none" stroke="#264689" stroke-width="1.333"/><path d="M1912.947 1083.419l-246.667 114.666 286.667 94.667z" fill="#33528c"/><path d="M1912.947 1083.419l-246.667 114.666 286.667 94.667z" fill="none" stroke="#33528c" stroke-width="1.333"/><path d="M1784.947 676.752l-110.667 90.667 266.667 164z" fill="#203360"/><path d="M1784.947 676.752l-110.667 90.667 266.667 164z" fill="none" stroke="#203360" stroke-width="1.333"/><path d="M1972.947 1362.08l-106.667 80h133.333z" fill="#264686"/><path d="M1972.947 1362.08l-106.667 80h133.333z" fill="none" stroke="#264686" stroke-width="1.333"/><path d="M1972.947 1362.08l26.666 80 18.667-10.667z" fill="#264689"/><path d="M1972.947 1362.08l26.666 80 18.667-10.667z" fill="none" stroke="#264689" stroke-width="1.333"/><path d="M1952.947 1292.752l20 69.328 61.333-69.328z" fill="#264887"/><path d="M1952.947 1292.752l20 69.328 61.333-69.328z" fill="none" stroke="#264887" stroke-width="1.333"/><path d="M2034.28 1292.752l-16 138.661 74.667-12z" fill="#274a8f"/><path d="M2034.28 1292.752l-16 138.661 74.667-12z" fill="none" stroke="#274a8f" stroke-width="1.333"/><path d="M1940.947 931.419l-28 152 164-141.334z" fill="#264285"/><path d="M1940.947 931.419l-28 152 164-141.334z" fill="none" stroke="#264285" stroke-width="1.333"/><path d="M1972.947 1362.08l45.333 69.333 16-138.661z" fill="#264689"/><path d="M1972.947 1362.08l45.333 69.333 16-138.661z" fill="none" stroke="#264689" stroke-width="1.333"/><path d="M1912.947 1083.419l40 209.333h81.333z" fill="#274a93"/><path d="M1912.947 1083.419l40 209.333h81.333z" fill="none" stroke="#274a93" stroke-width="1.333"/><path d="M1866.28 2.08l-34.667 285.339 168-285.339z" fill="#23356a"/><path d="M1866.28 2.08l-34.667 285.339 168-285.339z" fill="none" stroke="#23356a" stroke-width="1.333"/><path d="M2018.28 1431.413l-18.667 10.667h132z" fill="#294c91"/><path d="M2018.28 1431.413l-18.667 10.667h132z" fill="none" stroke="#294c91" stroke-width="1.333"/><path d="M2092.947 1419.413l-74.667 12 113.333 10.667z" fill="#294d95"/><path d="M2092.947 1419.413l-74.667 12 113.333 10.667z" fill="none" stroke="#294d95" stroke-width="1.333"/><path d="M2076.955 942.085l-164.01 141.333h289.337l-125.327-141.333" fill="#224178"/><path d="M2076.955 942.085l-164.01 141.333h289.337z" fill="none" stroke="#224178" stroke-width="1.333"/><path d="M1912.945 1083.418l121.342 209.334 167.995-209.334h-289.337" fill="#284b94"/><path d="M1912.945 1083.418l121.342 209.334 167.995-209.334z" fill="none" stroke="#284b94" stroke-width="1.333"/><path d="M2202.268 1083.42l-167.991 209.332 207.994-66.666-40.003-142.666" fill="#2c529f"/><path d="M2202.268 1083.42l-167.991 209.332 207.994-66.666z" fill="none" stroke="#2c529f" stroke-width="1.333"/><path d="M2034.282 1292.752l58.667 126.661 161.34-60-220.007-66.661" fill="#2a4f98"/><path d="M2034.282 1292.752l58.667 126.661 161.34-60z" fill="none" stroke="#2a4f98" stroke-width="1.333"/><path d="M2092.95 1419.413l38.668 22.667 122.672-82.667-161.34 60" fill="#2b509c"/><path d="M2092.95 1419.413l38.668 22.667 122.672-82.667z" fill="none" stroke="#2b509c" stroke-width="1.333"/><path d="M2131.618 1442.08l77.337-4 45.335-78.667-122.672 82.667" fill="#2d51a2"/><path d="M2131.618 1442.08l77.337-4 45.335-78.667z" fill="none" stroke="#2d51a2" stroke-width="1.333"/><path d="M2242.286 1226.084l-208.004 66.668 220.008 66.661-12.004-133.329" fill="#2b4f9d"/><path d="M2242.286 1226.084l-208.004 66.668 220.008 66.661z" fill="none" stroke="#2b4f9d" stroke-width="1.333"/><path d="M1784.947 676.752l156 254.667 136 10.666z" fill="#203462"/><path d="M1784.947 676.752l156 254.667 136 10.666z" fill="none" stroke="#203462" stroke-width="1.333"/><path d="M2076.958 942.083l125.327 141.334 78.672-157.334-203.999 16" fill="#254486"/><path d="M2076.958 942.083l125.327 141.334 78.672-157.334z" fill="none" stroke="#254486" stroke-width="1.333"/><path d="M2202.288 1083.418l40.001 142.666 23.998-133.334-63.999-9.332" fill="#2c529f"/><path d="M2202.288 1083.418l40.001 142.666 23.998-133.334z" fill="none" stroke="#2c529f" stroke-width="1.333"/><path d="M2254.268 1359.414l-45.327 78.666 55.998 4-10.671-82.666" fill="#2f56a9"/><path d="M2254.268 1359.414l-45.327 78.666 55.998 4z" fill="none" stroke="#2f56a9" stroke-width="1.333"/><path d="M1999.613 2.08l-168 285.339 300-285.339z" fill="#24356a"/><path d="M1999.613 2.08l-168 285.339 300-285.339z" fill="none" stroke="#24356a" stroke-width="1.333"/><path d="M1784.944 676.756l291.998 265.332 253.328-214.665-545.326-50.667" fill="#233567"/><path d="M1784.944 676.756l291.998 265.332 253.328-214.665z" fill="none" stroke="#233567" stroke-width="1.333"/><path d="M2076.942 942.088l203.992-16 49.336-198.665-253.328 214.665" fill="#274087"/><path d="M2076.942 942.088l203.992-16 49.336-198.665z" fill="none" stroke="#274087" stroke-width="1.333"/><path d="M2202.285 1083.417l64.006 9.334 14.666-166.668-78.672 157.334" fill="#284a94"/><path d="M2202.285 1083.417l64.006 9.334 14.666-166.668z" fill="none" stroke="#284a94" stroke-width="1.333"/><path d="M2266.28 1092.753l-23.998 133.333 121.327-34.666-97.329-98.667" fill="#2d51a2"/><path d="M2266.28 1092.753l-23.998 133.333 121.327-34.666z" fill="none" stroke="#2d51a2" stroke-width="1.333"/><path d="M2280.935 926.087l-14.666 166.666 86.669-130.666-72.003-36" fill="#294c97"/><path d="M2280.935 926.087l-14.666 166.666 86.669-130.666z" fill="none" stroke="#294c97" stroke-width="1.333"/><path d="M1778.267 440.756l6.677 236 545.326 50.667-552.003-286.667" fill="#223466"/><path d="M1778.267 440.756l6.677 236 545.326 50.667z" fill="none" stroke="#223466" stroke-width="1.333"/><path d="M2280.963 926.083l71.998 36 38.662-62.666-110.66 26.666" fill="#284991"/><path d="M2280.963 926.083l71.998 36 38.662-62.666z" fill="none" stroke="#284991" stroke-width="1.333"/><path d="M2254.274 1359.414l10.667 82.666h133.332l-144-82.666" fill="#2f56a9"/><path d="M2254.274 1359.414l10.667 82.666h133.332z" fill="none" stroke="#2f56a9" stroke-width="1.333"/><path d="M2330.292 727.415l-49.33 198.668 110.66-26.666-61.33-172.002" fill="#243d77"/><path d="M2330.292 727.415l-49.33 198.668 110.66-26.666z" fill="none" stroke="#243d77" stroke-width="1.333"/><path d="M2242.282 1226.086l11.992 133.328 109.335-167.994-121.327 34.666" fill="#2d51a2"/><path d="M2242.282 1226.086l11.992 133.328 109.335-167.994z" fill="none" stroke="#2d51a2" stroke-width="1.333"/><path d="M1831.606 287.423l-53.339 153.333 552.003 286.667-498.664-440" fill="#24366b"/><path d="M1831.606 287.423l-53.339 153.333 552.003 286.667z" fill="none" stroke="#24366b" stroke-width="1.333"/><path d="M2391.6 899.42l-38.662 62.668 110.666-10.668-72.004-52" fill="#284994"/><path d="M2391.6 899.42l-38.662 62.668 110.666-10.668z" fill="none" stroke="#284994" stroke-width="1.333"/><path d="M2352.939 962.086l10.671 229.333 121.336-213.333-132.007-16" fill="#2b4f9d"/><path d="M2352.939 962.086l10.671 229.333 121.336-213.333z" fill="none" stroke="#2b4f9d" stroke-width="1.333"/><path d="M2463.618 951.419l-110.68 10.667 132.008 16-21.328-26.667" fill="#284a95"/><path d="M2463.618 951.419l-110.68 10.667 132.008 16z" fill="none" stroke="#284a95" stroke-width="1.333"/><path d="M2363.609 1191.419l-109.335 167.995 144 82.666-34.665-250.661" fill="#2e54a6"/><path d="M2363.609 1191.419l-109.335 167.995 144 82.666z" fill="none" stroke="#2e54a6" stroke-width="1.333"/><path d="M2352.936 962.086l-86.656 130.667 97.329 98.667-10.673-229.334" fill="#2b4f9f"/><path d="M2352.936 962.086l-86.656 130.667 97.329 98.667z" fill="none" stroke="#2b4f9f" stroke-width="1.333"/><path d="M2363.605 1191.42l34.674 250.66 137.327-130.661-172.001-120" fill="#2d53a1"/><path d="M2363.605 1191.42l34.674 250.66 137.327-130.661z" fill="none" stroke="#2d53a1" stroke-width="1.333"/><path d="M2398.279 1442.08h133.33l3.997-130.661-137.327 130.661" fill="#2d53a3"/><path d="M2398.279 1442.08h133.33l3.997-130.661z" fill="none" stroke="#2d53a3" stroke-width="1.333"/><path d="M2208.941 1438.08l-77.341 4h133.34l-55.999-4" fill="#2d53a3"/><path d="M2208.941 1438.08l-77.341 4h133.34z" fill="none" stroke="#2d53a3" stroke-width="1.333"/><path d="M2363.61 1191.42l172.003 120 26.66-112-198.663-8" fill="#294d97"/><path d="M2363.61 1191.42l172.003 120 26.66-112z" fill="none" stroke="#294d97" stroke-width="1.333"/><path d="M2531.604 1442.08l29.333-1.333 1.336-107.995-30.669 109.328" fill="#2b519e"/><path d="M2531.604 1442.08l29.333-1.333 1.336-107.995z" fill="none" stroke="#2b519e" stroke-width="1.333"/><path d="M2535.613 1311.42l-4.009 130.66 30.669-109.328-26.66-21.333" fill="#2b519e"/><path d="M2535.613 1311.42l-4.009 130.66 30.669-109.328z" fill="none" stroke="#2b519e" stroke-width="1.333"/><path d="M2562.273 1199.42l-26.66 112 26.66 21.332V1199.42" fill="#284d97"/><path d="M2562.273 1199.42l-26.66 112 26.66 21.332z" fill="none" stroke="#284d97" stroke-width="1.333"/><path d="M2363.61 1191.42l198.663 8v-133.333L2363.61 1191.42" fill="#284a95"/><path d="M2363.61 1191.42l198.663 8v-133.333z" fill="none" stroke="#284a95" stroke-width="1.333"/><path d="M2484.933 978.086L2363.61 1191.42l198.663-125.333-77.34-88.001" fill="#274891"/><path d="M2484.933 978.086L2363.61 1191.42l198.663-125.333z" fill="none" stroke="#274891" stroke-width="1.333"/><path d="M2463.602 951.42l21.331 26.666 77.34-43.999-98.671 17.333" fill="#25448a"/><path d="M2463.602 951.42l21.331 26.666 77.34-43.999z" fill="none" stroke="#25448a" stroke-width="1.333"/><path d="M2484.933 978.086l77.34 88V934.088l-77.34 43.999" fill="#26448a"/><path d="M2484.933 978.086l77.34 88V934.088z" fill="none" stroke="#26448a" stroke-width="1.333"/><path d="M2398.272 2.09h-133.333l297.334 265.332L2398.272 2.09" fill="#242e64"/><path d="M2398.272 2.09h-133.333l297.334 265.332z" fill="none" stroke="#242e64" stroke-width="1.333"/><path d="M2264.94 2.09h-133.333l430.666 398.666L2264.939 2.09" fill="#252e65"/><path d="M2264.94 2.09h-133.333l430.666 398.666z" fill="none" stroke="#252e65" stroke-width="1.333"/><path d="M2131.607 2.09L1831.6 287.42l730.672 113.335L2131.607 2.09" fill="#253268"/><path d="M2131.607 2.09L1831.6 287.42l730.672 113.335z" fill="none" stroke="#253268" stroke-width="1.333"/><path d="M1831.6 287.421l498.67 440 232.003-326.665-730.672-113.335" fill="#243266"/><path d="M1831.6 287.421l498.67 440 232.003-326.665z" fill="none" stroke="#243266" stroke-width="1.333"/><path d="M2562.273 267.422L2264.939 2.09l297.334 398.666V267.422" fill="#252e65"/><path d="M2562.273 267.422L2264.939 2.09l297.334 398.666z" fill="none" stroke="#252e65" stroke-width="1.333"/><path d="M2562.273 400.756L2330.269 727.42l232.004-193.332V400.756" fill="#25346d"/><path d="M2562.273 400.756L2330.269 727.42l232.004-193.332z" fill="none" stroke="#25346d" stroke-width="1.333"/><path d="M2562.273 534.088L2330.269 727.42l232.004-60V534.089" fill="#25346c"/><path d="M2562.273 534.088L2330.269 727.42l232.004-60z" fill="none" stroke="#25346c" stroke-width="1.333"/><path d="M2463.602 951.42l98.671-17.333V800.753l-98.671 150.667" fill="#273d7e"/><path d="M2463.602 951.42l98.671-17.333V800.753z" fill="none" stroke="#273d7e" stroke-width="1.333"/><path d="M2391.607 899.42l71.995 52 98.671-150.667-170.666 98.667" fill="#274086"/><path d="M2391.607 899.42l71.995 52 98.671-150.667z" fill="none" stroke="#274086" stroke-width="1.333"/><path d="M2562.273 667.42l-232.004 60 232.004 73.333V667.421" fill="#24356a"/><path d="M2562.273 667.42l-232.004 60 232.004 73.333z" fill="none" stroke="#24356a" stroke-width="1.333"/><path d="M2330.27 727.42l61.337 172 170.666-98.667-232.004-73.333" fill="#253974"/><path d="M2330.27 727.42l61.337 172 170.666-98.667z" fill="none" stroke="#253974" stroke-width="1.333"/><path d="M2560.937 1440.747l-29.333 1.333h30.669l-1.336-1.333" fill="#2d51a2"/><path d="M2560.937 1440.747l-29.333 1.333h30.669z" fill="none" stroke="#2d51a2" stroke-width="1.333"/><path d="M2562.273 1332.752l-1.336 107.995 1.336 1.333v-109.328" fill="#2b519e"/><path d="M2562.273 1332.752l-1.336 107.995 1.336 1.333z" fill="none" stroke="#2b519e" stroke-width="1.333"/><path d="M2398.272 2.09l164.001 265.332V134.089l-164.001-132" fill="#252d65"/><path d="M2398.272 2.09l164.001 265.332V134.089z" fill="none" stroke="#252d65" stroke-width="1.333"/><path d="M2531.604 2.09h-133.332l164.001 131.999-30.669-132" fill="#242b60"/><path d="M2531.604 2.09h-133.332l164.001 131.999z" fill="none" stroke="#242b60" stroke-width="1.333"/><path d="M2562.273 2.09h-30.669l30.669 131.999v-132" fill="#252b63"/><path d="M2562.273 2.09h-30.669l30.669 131.999z" fill="none" stroke="#252b63" stroke-width="1.333"/></svg>